<svg width="18" height="18" viewBox="0 0 18 18" fill="none" xmlns="http://www.w3.org/2000/svg">
<path d="M5.20499 2.74977C5.2048 3.1476 5.04657 3.52905 4.76512 3.81021C4.48368 4.09138 4.10207 4.24922 3.70424 4.24902C3.30642 4.24882 2.92497 4.0906 2.6438 3.80915C2.36264 3.52771 2.2048 3.1461 2.20499 2.74827C2.20519 2.35045 2.36342 1.969 2.64486 1.68783C2.92631 1.40667 3.30792 1.24882 3.70574 1.24902C4.10357 1.24922 4.48502 1.40745 4.76619 1.68889C5.04735 1.97034 5.20519 2.35195 5.20499 2.74977ZM5.24999 5.35977H2.24999V14.7498H5.24999V5.35977ZM9.98999 5.35977H7.00499V14.7498H9.95999V9.82227C9.95999 7.07727 13.5375 6.82227 13.5375 9.82227V14.7498H16.5V8.80227C16.5 4.17477 11.205 4.34727 9.95999 6.61977L9.98999 5.35977Z" fill="#75757F"/>
</svg>
