<svg width="214" height="65" viewBox="0 0 214 65" fill="none" xmlns="http://www.w3.org/2000/svg">
<g filter="url(#filter0_dd_1_153)">
<path fill-rule="evenodd" clip-rule="evenodd" d="M33.4154 27.9705C36.1557 24.4682 40.5439 22.1993 45.4899 22.1993C50.4649 22.1993 54.8754 24.495 57.6125 28.0324C57.4959 28.1462 57.3899 28.2642 57.2938 28.382C56.7924 28.9988 56.4152 29.7934 56.113 30.6003C55.5044 32.2231 55.0402 34.3429 54.6105 36.3278L54.5722 36.5063C54.1434 38.4876 53.7448 40.3303 53.2629 41.6982C53.0464 42.3127 52.8411 42.7472 52.659 43.0254C52.469 42.7449 52.2534 42.3052 52.0253 41.6818C51.5098 40.2747 51.0763 38.3607 50.6167 36.317L50.6018 36.2501V36.25C50.1602 34.2871 49.6917 32.2043 49.1076 30.61C48.8142 29.8091 48.4542 29.0225 47.9832 28.4113C47.5211 27.8116 46.7517 27.1347 45.6266 27.1347C44.5085 27.1347 43.7356 27.8042 43.2667 28.3972C42.7867 29.0045 42.4125 29.7878 42.1042 30.5891C41.4834 32.2026 40.9758 34.3133 40.5034 36.301L40.4546 36.5063C39.9869 38.4753 39.5496 40.3162 39.0532 41.6867C38.8637 42.21 38.6849 42.6083 38.5231 42.8927C38.3649 42.6096 38.1905 42.214 38.0062 41.6951C37.53 40.3538 37.1128 38.5644 36.6648 36.6426L36.5864 36.3063C36.1222 34.3174 35.6185 32.2029 34.9889 30.5843C34.676 29.7801 34.2933 28.9928 33.7982 28.3828C33.686 28.2447 33.5586 28.1045 33.4154 27.9705ZM31.7569 30.6596C31.8874 30.9045 32.0254 31.208 32.1682 31.575C32.7132 32.976 33.175 34.8877 33.6505 36.9249L33.743 37.3219C34.1759 39.1807 34.6263 41.1144 35.1568 42.6083C35.4389 43.4028 35.7796 44.181 36.2178 44.7858C36.6322 45.3578 37.3756 46.0967 38.5186 46.0967C39.6584 46.0967 40.4036 45.3614 40.8208 44.792C41.2627 44.1886 41.609 43.4112 41.8968 42.6162C42.4486 41.0927 42.9184 39.1138 43.368 37.2199V37.2198L43.4368 36.9303C43.9212 34.8918 44.3876 32.9763 44.9286 31.5702C45.1793 30.9187 45.4139 30.4649 45.6182 30.1833C45.8118 30.4625 46.033 30.9091 46.2676 31.5493C46.7832 32.9566 47.2163 34.8705 47.676 36.9142L47.691 36.9811C48.1325 38.9441 48.601 41.027 49.1851 42.6211C49.4785 43.4223 49.8386 44.2089 50.3095 44.8199C50.7718 45.4198 51.541 46.0967 52.666 46.0967C53.797 46.0967 54.5634 45.4136 55.0202 44.8084C55.484 44.1943 55.8327 43.405 56.1144 42.6052C56.6559 41.0687 57.0864 39.0752 57.497 37.1788V37.1787L57.5558 36.9034C57.9978 34.8622 58.422 32.9558 58.946 31.559C59.0594 31.2551 59.1712 30.996 59.2778 30.7784C60.0805 32.5265 60.5257 34.4567 60.5257 36.4857C60.5257 44.3757 53.7942 50.7721 45.4899 50.7721C37.1857 50.7721 30.4539 44.3757 30.4539 36.4857C30.4539 34.4106 30.9195 32.4388 31.7569 30.6596ZM45.4899 19.342C35.5249 19.342 27.4467 27.0175 27.4467 36.4857C27.4467 45.9538 35.5249 53.6292 45.4899 53.6292C55.4551 53.6292 63.5329 45.9538 63.5329 36.4857C63.5329 27.0175 55.4551 19.342 45.4899 19.342ZM45.8336 29.9442C45.8336 29.9445 45.8301 29.9472 45.8231 29.9511C45.8301 29.9458 45.8336 29.9438 45.8336 29.9442ZM45.418 29.9461C45.411 29.9421 45.4075 29.9393 45.4075 29.9389C45.4075 29.9385 45.4111 29.9406 45.418 29.9461ZM52.4373 43.2966C52.4373 43.2966 52.4406 43.2935 52.4471 43.2896C52.4406 43.2949 52.4373 43.2971 52.4373 43.2966ZM52.8746 43.2851C52.8815 43.2891 52.8853 43.2918 52.8853 43.2922C52.8853 43.2926 52.8815 43.2904 52.8746 43.2851ZM38.2105 43.3223C38.2104 43.3218 38.2148 43.3178 38.2234 43.3121C38.2148 43.3196 38.2105 43.3227 38.2105 43.3223ZM38.8195 43.3148C38.8281 43.3205 38.8324 43.3245 38.8324 43.3249C38.8323 43.3254 38.828 43.3227 38.8195 43.3148Z" fill="#81818B"/>
<path d="M73.4958 46.6351L69.1205 32.4144H72.953L75.5481 42.6498L78.5652 32.4144H82.8503L85.868 42.6498L88.493 32.4144H92.3255L87.9197 46.6351H83.9066L80.7078 35.9982L77.5095 46.6351H73.4958Z" fill="#81818B"/>
<path d="M97.9488 46.9793C96.6615 46.9793 95.6052 46.7877 94.7804 46.4055C93.9562 46.0042 93.3424 45.4786 92.9398 44.8287C92.5376 44.1788 92.3365 43.4621 92.3365 42.6785C92.3365 41.3597 92.8794 40.2893 93.9656 39.4674C95.0519 38.6455 96.682 38.2346 98.8544 38.2346H102.656V37.8905C102.656 36.9157 102.365 36.199 101.781 35.7402C101.198 35.2815 100.474 35.0522 99.6089 35.0522C98.824 35.0522 98.1399 35.2337 97.5566 35.5969C96.9734 35.9409 96.6111 36.457 96.4704 37.1451H92.6983C92.7991 36.113 93.1613 35.2146 93.7845 34.45C94.4287 33.6855 95.2535 33.1025 96.2588 32.7012C97.2653 32.2807 98.3914 32.0704 99.6388 32.0704C101.771 32.0704 103.451 32.5769 104.678 33.5899C105.905 34.603 106.519 36.0366 106.519 37.8905V46.6351H103.229L102.868 44.3416C102.425 45.1061 101.801 45.7366 100.997 46.2338C100.212 46.7306 99.1962 46.9793 97.9488 46.9793ZM98.824 44.112C99.9307 44.112 100.785 43.7678 101.389 43.0798C102.012 42.3919 102.405 41.5411 102.566 40.5282H99.2765C98.2507 40.5282 97.5167 40.7098 97.0736 41.0729C96.6316 41.4168 96.41 41.8472 96.41 42.3631C96.41 42.9175 96.6316 43.3475 97.0736 43.6532C97.5167 43.9589 98.0995 44.112 98.824 44.112Z" fill="#81818B"/>
<path d="M112.599 46.6351L107.107 32.4144H111.15L114.952 43.1661L118.755 32.4144H122.798L117.276 46.6351H112.599Z" fill="#81818B"/>
<path d="M130.562 46.9793C129.054 46.9793 127.716 46.6732 126.549 46.0617C125.383 45.4498 124.468 44.5898 123.803 43.4811C123.139 42.3728 122.808 41.092 122.808 39.6394C122.808 38.1677 123.13 36.8584 123.773 35.7116C124.437 34.5648 125.342 33.676 126.489 33.0452C127.655 32.3954 129.023 32.0704 130.593 32.0704C132.061 32.0704 133.359 32.3762 134.486 32.9879C135.612 33.5995 136.487 34.4405 137.111 35.5109C137.754 36.5621 138.077 37.7376 138.077 39.0373C138.077 39.2476 138.066 39.4674 138.046 39.6967C138.046 39.9262 138.036 40.165 138.016 40.4135H126.64C126.72 41.5221 127.123 42.3919 127.847 43.0228C128.591 43.6532 129.487 43.9687 130.533 43.9687C131.317 43.9687 131.971 43.8063 132.494 43.4811C133.037 43.1373 133.439 42.6976 133.701 42.1622H137.623C137.342 43.0608 136.869 43.8828 136.205 44.6283C135.561 45.3543 134.757 45.9277 133.791 46.3484C132.846 46.7687 131.769 46.9793 130.562 46.9793ZM130.593 35.0522C129.648 35.0522 128.812 35.3102 128.088 35.8262C127.364 36.3232 126.901 37.0878 126.7 38.1199H134.153C134.093 37.1833 133.731 36.4379 133.067 35.8836C132.403 35.3293 131.579 35.0522 130.593 35.0522Z" fill="#81818B"/>
<path d="M140.118 46.635V25.9922H143.98V46.635H140.118Z" fill="#81818B"/>
<path d="M153.991 46.9793C152.483 46.9793 151.145 46.6732 149.978 46.0617C148.812 45.4498 147.897 44.5898 147.233 43.4811C146.568 42.3728 146.237 41.092 146.237 39.6394C146.237 38.1677 146.559 36.8584 147.202 35.7116C147.866 34.5648 148.771 33.676 149.918 33.0452C151.085 32.3954 152.453 32.0704 154.022 32.0704C155.49 32.0704 156.788 32.3762 157.915 32.9879C159.041 33.5995 159.917 34.4405 160.54 35.5109C161.183 36.5621 161.506 37.7376 161.506 39.0373C161.506 39.2476 161.495 39.4674 161.475 39.6967C161.475 39.9262 161.465 40.165 161.445 40.4135H150.069C150.149 41.5221 150.552 42.3919 151.276 43.0228C152.02 43.6532 152.916 43.9687 153.962 43.9687C154.746 43.9687 155.4 43.8063 155.923 43.4811C156.466 43.1373 156.868 42.6976 157.13 42.1622H161.053C160.771 43.0608 160.298 43.8828 159.635 44.6283C158.99 45.3543 158.186 45.9277 157.22 46.3484C156.275 46.7687 155.199 46.9793 153.991 46.9793ZM154.022 35.0522C153.077 35.0522 152.242 35.3102 151.517 35.8262C150.793 36.3232 150.331 37.0878 150.129 38.1199H157.582C157.522 37.1833 157.16 36.4379 156.496 35.8836C155.832 35.3293 155.008 35.0522 154.022 35.0522Z" fill="#81818B"/>
<path d="M169.733 46.9793C168.405 46.9793 167.238 46.7784 166.233 46.3772C165.226 45.9564 164.422 45.3831 163.818 44.6566C163.215 43.9306 162.853 43.0896 162.732 42.134H166.625C166.745 42.6878 167.068 43.1661 167.591 43.5674C168.133 43.9496 168.827 44.1408 169.672 44.1408C170.517 44.1408 171.131 43.9784 171.513 43.6532C171.915 43.3285 172.117 42.9555 172.117 42.5352C172.117 41.9234 171.835 41.5124 171.272 41.3022C170.709 41.0729 169.924 40.8532 168.918 40.6429C168.275 40.5091 167.621 40.3466 166.957 40.1555C166.293 39.9644 165.68 39.7254 165.116 39.4388C164.573 39.1329 164.13 38.7506 163.788 38.2919C163.446 37.814 163.276 37.2311 163.276 36.543C163.276 35.2815 163.798 34.2207 164.845 33.3606C165.911 32.5005 167.399 32.0704 169.31 32.0704C171.081 32.0704 172.489 32.4622 173.535 33.2459C174.601 34.0296 175.235 35.1095 175.436 36.4857H171.785C171.563 35.4344 170.728 34.9088 169.281 34.9088C168.556 34.9088 167.993 35.0426 167.591 35.3102C167.208 35.5778 167.017 35.9122 167.017 36.3136C167.017 36.7342 167.309 37.0686 167.892 37.3171C168.476 37.5656 169.25 37.7949 170.216 38.0052C171.261 38.2346 172.217 38.4926 173.082 38.7793C173.967 39.0469 174.671 39.4579 175.195 40.0122C175.718 40.5473 175.979 41.3212 175.979 42.3343C175.999 43.2139 175.757 44.0067 175.255 44.7141C174.752 45.4211 174.028 45.9754 173.082 46.3772C172.137 46.7784 171.02 46.9793 169.733 46.9793Z" fill="#81818B"/>
<path d="M184.379 46.9793C183.052 46.9793 181.885 46.7784 180.879 46.3772C179.873 45.9564 179.069 45.3831 178.465 44.6566C177.862 43.9306 177.499 43.0896 177.379 42.134H181.272C181.392 42.6878 181.714 43.1661 182.237 43.5674C182.78 43.9496 183.474 44.1408 184.319 44.1408C185.164 44.1408 185.778 43.9784 186.16 43.6532C186.562 43.3285 186.764 42.9555 186.764 42.5352C186.764 41.9234 186.482 41.5124 185.918 41.3022C185.355 41.0729 184.571 40.8532 183.565 40.6429C182.921 40.5091 182.267 40.3466 181.603 40.1555C180.94 39.9644 180.326 39.7254 179.763 39.4388C179.22 39.1329 178.777 38.7506 178.435 38.2919C178.093 37.814 177.922 37.2311 177.922 36.543C177.922 35.2815 178.445 34.2207 179.491 33.3606C180.558 32.5005 182.046 32.0704 183.957 32.0704C185.727 32.0704 187.135 32.4622 188.182 33.2459C189.247 34.0296 189.881 35.1095 190.083 36.4857H186.431C186.21 35.4344 185.375 34.9088 183.927 34.9088C183.202 34.9088 182.639 35.0426 182.237 35.3102C181.855 35.5778 181.664 35.9122 181.664 36.3136C181.664 36.7342 181.955 37.0686 182.539 37.3171C183.122 37.5656 183.896 37.7949 184.862 38.0052C185.908 38.2346 186.864 38.4926 187.729 38.7793C188.614 39.0469 189.318 39.4579 189.841 40.0122C190.364 40.5473 190.626 41.3212 190.626 42.3343C190.646 43.2139 190.404 44.0067 189.901 44.7141C189.398 45.4211 188.675 45.9754 187.729 46.3772C186.783 46.7784 185.667 46.9793 184.379 46.9793Z" fill="#81818B"/>
</g>
<defs>
<filter id="filter0_dd_1_153" x="0" y="-3" width="218" height="86.75" filterUnits="userSpaceOnUse" color-interpolation-filters="sRGB">
<feFlood flood-opacity="0" result="BackgroundImageFix"/>
<feColorMatrix in="SourceAlpha" type="matrix" values="0 0 0 0 0 0 0 0 0 0 0 0 0 0 0 0 0 0 127 0" result="hardAlpha"/>
<feOffset dy="4"/>
<feGaussianBlur stdDeviation="2"/>
<feComposite in2="hardAlpha" operator="out"/>
<feColorMatrix type="matrix" values="0 0 0 0 0 0 0 0 0 0 0 0 0 0 0 0 0 0 0.25 0"/>
<feBlend mode="normal" in2="BackgroundImageFix" result="effect1_dropShadow_1_153"/>
<feColorMatrix in="SourceAlpha" type="matrix" values="0 0 0 0 0 0 0 0 0 0 0 0 0 0 0 0 0 0 127 0" result="hardAlpha"/>
<feOffset dy="4"/>
<feGaussianBlur stdDeviation="2"/>
<feComposite in2="hardAlpha" operator="out"/>
<feColorMatrix type="matrix" values="0 0 0 0 0 0 0 0 0 0 0 0 0 0 0 0 0 0 0.25 0"/>
<feBlend mode="normal" in2="effect1_dropShadow_1_153" result="effect2_dropShadow_1_153"/>
<feBlend mode="normal" in="SourceGraphic" in2="effect2_dropShadow_1_153" result="shape"/>
</filter>
</defs>
</svg>
